<?xml version="1.0" encoding="UTF-8" standalone="no"?>
<!DOCTYPE svg PUBLIC "-//W3C//DTD SVG 1.1//EN"
 "http://www.w3.org/Graphics/SVG/1.1/DTD/svg11.dtd">
<!-- Generated by graphviz version 2.38.0 (20140413.2041)
 -->
<!-- Title: %3 Pages: 1 -->
<svg width="62pt" height="299pt"
 viewBox="0.00 0.00 62.00 299.00" xmlns="http://www.w3.org/2000/svg" xmlns:xlink="http://www.w3.org/1999/xlink">
<g id="graph0" class="graph" transform="scale(1 1) rotate(0) translate(4 295)">
<title>%3</title>
<polygon fill="white" stroke="none" points="-4,4 -4,-295 58,-295 58,4 -4,4"/>
<!-- fake -->
<g id="node1" class="node"><title>fake</title>
</g>
<!-- a -->
<g id="node2" class="node"><title>a</title>
<ellipse fill="none" stroke="black" cx="27" cy="-200" rx="27" ry="18"/>
<text text-anchor="middle" x="27" y="-196.3" font-family="Times,serif" font-size="14.00">a</text>
</g>
<!-- fake&#45;&gt;a -->
<g id="edge1" class="edge"><title>fake&#45;&gt;a</title>
<path fill="none" stroke="black" stroke-width="2" d="M27,-254.813C27,-246.789 27,-237.047 27,-228.069"/>
<polygon fill="black" stroke="black" stroke-width="2" points="30.5001,-228.029 27,-218.029 23.5001,-228.029 30.5001,-228.029"/>
</g>
<!-- b -->
<g id="node4" class="node"><title>b</title>
<ellipse fill="none" stroke="black" cx="27" cy="-113" rx="27" ry="18"/>
<text text-anchor="middle" x="27" y="-109.3" font-family="Times,serif" font-size="14.00">b</text>
</g>
<!-- a&#45;&gt;b -->
<g id="edge2" class="edge"><title>a&#45;&gt;b</title>
<path fill="none" stroke="black" d="M27,-181.799C27,-170.163 27,-154.548 27,-141.237"/>
<polygon fill="black" stroke="black" points="30.5001,-141.175 27,-131.175 23.5001,-141.175 30.5001,-141.175"/>
<text text-anchor="middle" x="30.5" y="-152.8" font-family="Times,serif" font-size="14.00">a</text>
</g>
<!-- c -->
<g id="node3" class="node"><title>c</title>
<ellipse fill="none" stroke="black" cx="27" cy="-22" rx="18" ry="18"/>
<ellipse fill="none" stroke="black" cx="27" cy="-22" rx="22" ry="22"/>
<text text-anchor="middle" x="27" y="-18.3" font-family="Times,serif" font-size="14.00">c</text>
</g>
<!-- b&#45;&gt;c -->
<g id="edge3" class="edge"><title>b&#45;&gt;c</title>
<path fill="none" stroke="black" d="M27,-94.8399C27,-83.4407 27,-68.1336 27,-54.5781"/>
<polygon fill="black" stroke="black" points="30.5001,-54.1905 27,-44.1905 23.5001,-54.1906 30.5001,-54.1905"/>
<text text-anchor="middle" x="30.5" y="-65.8" font-family="Times,serif" font-size="14.00">b</text>
</g>
</g>
</svg>
