<?xml version="1.0" encoding="UTF-8" standalone="no"?>
<!DOCTYPE svg PUBLIC "-//W3C//DTD SVG 1.1//EN"
 "http://www.w3.org/Graphics/SVG/1.1/DTD/svg11.dtd">
<!-- Generated by graphviz version 2.38.0 (20140413.2041)
 -->
<!-- Title: %3 Pages: 1 -->
<svg width="324pt" height="388pt"
 viewBox="0.00 0.00 324.15 388.39" xmlns="http://www.w3.org/2000/svg" xmlns:xlink="http://www.w3.org/1999/xlink">
<g id="graph0" class="graph" transform="scale(1 1) rotate(0) translate(4 384.386)">
<title>%3</title>
<polygon fill="white" stroke="none" points="-4,4 -4,-384.386 320.146,-384.386 320.146,4 -4,4"/>
<!-- fake -->
<g id="node1" class="node"><title>fake</title>
</g>
<!-- {&#39;s1&#39;} -->
<g id="node5" class="node"><title>{&#39;s1&#39;}</title>
<ellipse fill="none" stroke="black" cx="142.146" cy="-289.386" rx="30.5947" ry="18"/>
<text text-anchor="middle" x="142.146" y="-285.686" font-family="Times,serif" font-size="14.00">{&#39;s1&#39;}</text>
</g>
<!-- fake&#45;&gt;{&#39;s1&#39;} -->
<g id="edge1" class="edge"><title>fake&#45;&gt;{&#39;s1&#39;}</title>
<path fill="none" stroke="black" stroke-width="2" d="M142.146,-344.199C142.146,-336.176 142.146,-326.434 142.146,-317.456"/>
<polygon fill="black" stroke="black" stroke-width="2" points="145.646,-317.415 142.146,-307.415 138.646,-317.415 145.646,-317.415"/>
</g>
<!-- {&#39;s2&#39;, &#39;s1&#39;} -->
<g id="node2" class="node"><title>{&#39;s2&#39;, &#39;s1&#39;}</title>
<ellipse fill="none" stroke="black" cx="50.1459" cy="-170.24" rx="46.2806" ry="46.2806"/>
<ellipse fill="none" stroke="black" cx="50.1459" cy="-170.24" rx="50.2922" ry="50.2922"/>
<text text-anchor="middle" x="50.1459" y="-166.54" font-family="Times,serif" font-size="14.00">{&#39;s2&#39;, &#39;s1&#39;}</text>
</g>
<!-- {&#39;s2&#39;, &#39;s1&#39;}&#45;&gt;{&#39;s2&#39;, &#39;s1&#39;} -->
<g id="edge6" class="edge"><title>{&#39;s2&#39;, &#39;s1&#39;}&#45;&gt;{&#39;s2&#39;, &#39;s1&#39;}</title>
<path fill="none" stroke="black" d="M98.5343,-183.841C109.904,-182.723 118.292,-178.19 118.292,-170.24 118.292,-164.9 114.505,-161.101 108.572,-158.844"/>
<polygon fill="black" stroke="black" points="109.052,-155.366 98.5343,-156.64 107.551,-162.203 109.052,-155.366"/>
<text text-anchor="middle" x="121.792" y="-166.54" font-family="Times,serif" font-size="14.00">c</text>
</g>
<!-- {&#39;s2&#39;} -->
<g id="node4" class="node"><title>{&#39;s2&#39;}</title>
<ellipse fill="none" stroke="black" cx="142.146" cy="-34.5473" rx="30.5892" ry="30.5892"/>
<ellipse fill="none" stroke="black" cx="142.146" cy="-34.5473" rx="34.5946" ry="34.5946"/>
<text text-anchor="middle" x="142.146" y="-30.8473" font-family="Times,serif" font-size="14.00">{&#39;s2&#39;}</text>
</g>
<!-- {&#39;s2&#39;, &#39;s1&#39;}&#45;&gt;{&#39;s2&#39;} -->
<g id="edge7" class="edge"><title>{&#39;s2&#39;, &#39;s1&#39;}&#45;&gt;{&#39;s2&#39;}</title>
<path fill="none" stroke="black" d="M67.2701,-122.728C72.7396,-110.601 79.4156,-97.9114 87.1459,-87.0946 93.0811,-78.7897 100.505,-70.7603 107.96,-63.6094"/>
<polygon fill="black" stroke="black" points="110.394,-66.1263 115.372,-56.7737 105.648,-60.9808 110.394,-66.1263"/>
<text text-anchor="middle" x="90.6459" y="-90.8946" font-family="Times,serif" font-size="14.00">b</text>
</g>
<!-- {&#39;s2&#39;, &#39;s1&#39;}&#45;&gt;{&#39;s1&#39;} -->
<g id="edge5" class="edge"><title>{&#39;s2&#39;, &#39;s1&#39;}&#45;&gt;{&#39;s1&#39;}</title>
<path fill="none" stroke="black" d="M80.7217,-210.173C94.8274,-228.135 111.121,-248.882 123.382,-264.493"/>
<polygon fill="black" stroke="black" points="120.809,-266.885 129.738,-272.588 126.315,-262.561 120.809,-266.885"/>
<text text-anchor="middle" x="115.646" y="-242.186" font-family="Times,serif" font-size="14.00">a</text>
</g>
<!-- {} -->
<g id="node3" class="node"><title>{}</title>
<ellipse fill="none" stroke="black" cx="214.146" cy="-362.386" rx="27" ry="18"/>
<text text-anchor="middle" x="214.146" y="-358.686" font-family="Times,serif" font-size="14.00">{}</text>
</g>
<!-- {}&#45;&gt;{} -->
<g id="edge8" class="edge"><title>{}&#45;&gt;{}</title>
<path fill="none" stroke="black" d="M240.941,-364.631C250.926,-364.705 259.146,-363.957 259.146,-362.386 259.146,-361.405 255.935,-360.745 251.089,-360.405"/>
<polygon fill="black" stroke="black" points="251.028,-356.903 240.941,-360.141 250.846,-363.9 251.028,-356.903"/>
<text text-anchor="middle" x="262.646" y="-358.686" font-family="Times,serif" font-size="14.00">a</text>
</g>
<!-- {}&#45;&gt;{} -->
<g id="edge9" class="edge"><title>{}&#45;&gt;{}</title>
<path fill="none" stroke="black" d="M240.688,-366.447C259.058,-367.677 277.146,-366.324 277.146,-362.386 277.146,-359.187 265.205,-357.694 250.874,-357.906"/>
<polygon fill="black" stroke="black" points="250.535,-354.417 240.688,-358.326 250.823,-361.411 250.535,-354.417"/>
<text text-anchor="middle" x="280.646" y="-358.686" font-family="Times,serif" font-size="14.00">c</text>
</g>
<!-- {}&#45;&gt;{} -->
<g id="edge10" class="edge"><title>{}&#45;&gt;{}</title>
<path fill="none" stroke="black" d="M240.276,-367.702C266.332,-370.733 295.146,-368.961 295.146,-362.386 295.146,-356.66 273.282,-354.577 250.423,-356.138"/>
<polygon fill="black" stroke="black" points="249.914,-352.67 240.276,-357.071 250.555,-359.641 249.914,-352.67"/>
<text text-anchor="middle" x="298.646" y="-358.686" font-family="Times,serif" font-size="14.00">b</text>
</g>
<!-- {&#39;s2&#39;}&#45;&gt;{&#39;s2&#39;, &#39;s1&#39;} -->
<g id="edge3" class="edge"><title>{&#39;s2&#39;}&#45;&gt;{&#39;s2&#39;, &#39;s1&#39;}</title>
<path fill="none" stroke="black" d="M122.947,-63.4466C111.677,-79.8241 97.111,-100.991 83.9725,-120.084"/>
<polygon fill="black" stroke="black" points="81.0345,-118.18 78.2488,-128.402 86.8011,-122.148 81.0345,-118.18"/>
<text text-anchor="middle" x="107.646" y="-90.8946" font-family="Times,serif" font-size="14.00">c</text>
</g>
<!-- {&#39;s2&#39;}&#45;&gt;{&#39;s2&#39;} -->
<g id="edge4" class="edge"><title>{&#39;s2&#39;}&#45;&gt;{&#39;s2&#39;}</title>
<path fill="none" stroke="black" d="M174.988,-45.7973C185.935,-45.7973 194.693,-42.0473 194.693,-34.5473 194.693,-29.6254 190.921,-26.3185 185.234,-24.6266"/>
<polygon fill="black" stroke="black" points="185.355,-21.113 174.988,-23.2973 184.455,-28.0549 185.355,-21.113"/>
<text text-anchor="middle" x="198.193" y="-30.8473" font-family="Times,serif" font-size="14.00">b</text>
</g>
<!-- {&#39;s2&#39;}&#45;&gt;{&#39;s1&#39;} -->
<g id="edge2" class="edge"><title>{&#39;s2&#39;}&#45;&gt;{&#39;s1&#39;}</title>
<path fill="none" stroke="black" d="M163.252,-62.2168C168.119,-69.8313 172.609,-78.4261 175.146,-87.0946 195.906,-158.026 202.422,-184.696 175.146,-253.386 173.193,-258.305 170.184,-262.934 166.762,-267.114"/>
<polygon fill="black" stroke="black" points="164.087,-264.852 159.842,-274.56 169.214,-269.618 164.087,-264.852"/>
<text text-anchor="middle" x="196.646" y="-166.54" font-family="Times,serif" font-size="14.00">a</text>
</g>
<!-- {&#39;s1&#39;}&#45;&gt;{&#39;s2&#39;, &#39;s1&#39;} -->
<g id="edge12" class="edge"><title>{&#39;s1&#39;}&#45;&gt;{&#39;s2&#39;, &#39;s1&#39;}</title>
<path fill="none" stroke="black" d="M120.866,-276.323C111.545,-270.298 100.972,-262.375 93.1459,-253.386 85.9431,-245.114 79.5282,-235.425 73.9921,-225.661"/>
<polygon fill="black" stroke="black" points="76.9895,-223.845 69.1575,-216.71 70.8305,-227.172 76.9895,-223.845"/>
<text text-anchor="middle" x="96.6459" y="-242.186" font-family="Times,serif" font-size="14.00">c</text>
</g>
<!-- {&#39;s1&#39;}&#45;&gt;{&#39;s2&#39;} -->
<g id="edge13" class="edge"><title>{&#39;s1&#39;}&#45;&gt;{&#39;s2&#39;}</title>
<path fill="none" stroke="black" d="M142.146,-271.008C142.146,-231.936 142.146,-136.155 142.146,-79.5215"/>
<polygon fill="black" stroke="black" points="145.646,-79.4248 142.146,-69.4249 138.646,-79.4249 145.646,-79.4248"/>
<text text-anchor="middle" x="145.646" y="-166.54" font-family="Times,serif" font-size="14.00">b</text>
</g>
<!-- {&#39;s1&#39;}&#45;&gt;{&#39;s1&#39;} -->
<g id="edge11" class="edge"><title>{&#39;s1&#39;}&#45;&gt;{&#39;s1&#39;}</title>
<path fill="none" stroke="black" d="M170.569,-296.11C181.559,-296.409 190.693,-294.168 190.693,-289.386 190.693,-286.249 186.759,-284.205 180.949,-283.255"/>
<polygon fill="black" stroke="black" points="180.753,-279.738 170.569,-282.663 180.354,-286.727 180.753,-279.738"/>
<text text-anchor="middle" x="194.193" y="-285.686" font-family="Times,serif" font-size="14.00">a</text>
</g>
</g>
</svg>
